<svg version="1.1" id="Layer_1" xmlns="http://www.w3.org/2000/svg" xmlns:xlink="http://www.w3.org/1999/xlink" x="0px" y="0px"
	 width="100%" viewBox="0 0 500 500" enable-background="new 0 0 500 500" xml:space="preserve">
<path fill="#000000" opacity="1.000000" stroke="none" 
	d="
M293.000000,501.000000 
	C195.333359,501.000000 98.166710,501.000000 1.000052,501.000000 
	C1.000035,334.333405 1.000035,167.666794 1.000017,1.000142 
	C167.666565,1.000094 334.333130,1.000094 500.999756,1.000047 
	C500.999847,167.666519 500.999847,334.333038 500.999939,500.999786 
	C431.833344,501.000000 362.666656,501.000000 293.000000,501.000000 
M350.140167,31.994522 
	C344.409332,34.071354 342.770386,36.572208 343.000610,42.882893 
	C343.147919,46.921017 345.235382,49.815742 348.974426,50.819775 
	C352.255402,51.700813 355.792786,51.970558 359.209503,51.927155 
	C365.310150,51.849655 371.404480,51.074280 377.502808,51.056618 
	C388.203918,51.025616 398.274658,53.673027 408.317261,57.552689 
	C424.553009,63.824883 437.243591,73.858337 444.708313,89.534309 
	C455.172119,111.508362 463.843903,134.060974 463.076263,159.115097 
	C462.880707,165.497620 467.604370,171.752411 475.433167,171.085281 
	C481.796661,170.542984 486.251434,166.114014 485.932190,158.894974 
	C485.562317,150.529861 485.684967,141.943466 483.771454,133.885925 
	C479.210449,114.679970 473.378845,95.852448 464.140747,78.177162 
	C456.058807,62.713997 444.142883,51.178791 429.088654,43.167156 
	C413.618195,34.934021 396.911194,30.590588 378.662231,31.191845 
	C371.896942,31.129009 365.130646,30.976545 358.366852,31.050104 
	C355.872101,31.077234 353.383179,31.637127 350.140167,31.994522 
M99.449409,287.980103 
	C90.853241,304.917206 83.481979,322.246521 79.390343,340.965515 
	C75.581497,358.390656 74.273582,375.690857 79.125114,392.973236 
	C83.929871,410.088989 94.050072,423.474762 110.079514,431.459991 
	C130.096848,441.431915 151.469055,440.769196 172.591187,436.533386 
	C190.716263,432.898621 208.098846,426.384705 224.248047,417.217957 
	C231.786560,412.938873 237.888641,411.635132 246.312469,416.696777 
	C259.845612,424.828400 274.901733,430.072937 290.299164,434.210358 
	C306.185455,438.479218 322.063293,440.074280 338.446350,438.113586 
	C354.802826,436.156097 368.466766,429.540833 379.410583,417.170319 
	C392.202759,402.710449 395.311798,385.037842 395.807587,366.734161 
	C395.981354,360.317688 393.915283,353.855499 393.029053,347.392670 
	C389.867767,324.339935 380.099945,303.674774 369.563599,283.360413 
	C368.071411,280.483429 368.238953,278.752289 369.344635,276.231598 
	C375.838715,261.426453 383.341431,246.936966 388.311310,231.629135 
	C392.442108,218.905746 394.924957,205.269318 395.578888,191.912064 
	C396.124451,180.768448 393.861816,169.438736 389.461365,158.560547 
	C380.015747,135.210526 361.528107,124.795944 338.239594,121.194000 
	C330.404480,119.982178 322.195007,120.563789 314.208954,121.102127 
	C302.227997,121.909775 290.743256,124.948402 279.209686,128.580414 
	C265.185089,132.996857 252.318619,139.564087 239.178528,145.772095 
	C237.152679,146.729202 233.958496,146.708481 231.892685,145.801132 
	C226.067413,143.242538 220.739212,139.520004 214.863037,137.117172 
	C206.418915,133.664261 197.750092,130.687698 189.016953,128.035324 
	C180.208771,125.360153 171.323639,122.451584 162.258484,121.225403 
	C149.255402,119.466568 136.069977,119.463257 123.196175,123.044983 
	C101.171478,129.172653 86.394905,142.596497 79.834450,164.960114 
	C76.207947,177.322342 74.760468,189.655884 77.030663,202.314072 
	C78.893875,212.703018 79.934319,223.442169 83.416313,233.291901 
	C89.016922,249.134720 96.329803,264.372223 103.192894,280.508911 
	C102.439758,282.085358 101.176048,284.730560 99.449409,287.980103 
M377.937805,79.407562 
	C373.805145,78.605492 369.689972,77.240150 365.536438,77.111465 
	C354.888519,76.781548 344.220154,77.158089 333.567078,76.925156 
	C329.204041,76.829750 327.665253,79.311676 327.062317,82.760742 
	C326.077423,88.394798 329.530853,91.871956 336.165924,91.975739 
	C343.658020,92.092934 351.171478,91.666885 358.643372,92.072243 
	C372.036316,92.798813 383.944855,97.952637 393.935242,106.640343 
	C405.179260,116.418175 409.658020,130.249725 413.966431,143.942856 
	C417.161499,154.097610 419.447266,164.384644 419.138092,175.205139 
	C418.992249,180.309387 423.208160,183.891495 427.853455,183.988831 
	C430.787903,184.050323 435.989349,180.042023 435.904205,177.174088 
	C435.684631,169.779221 436.027740,162.164017 434.346558,155.062881 
	C431.677277,143.788162 427.948059,132.711502 423.943939,121.816895 
	C416.013214,100.238510 400.639038,86.381653 377.937805,79.407562 
z"/>
<path fill="#3D83F6" opacity="1.000000" stroke="none" 
	d="
M99.680870,287.677917 
	C101.176048,284.730560 102.439758,282.085358 103.192894,280.508911 
	C96.329803,264.372223 89.016922,249.134720 83.416313,233.291901 
	C79.934319,223.442169 78.893875,212.703018 77.030663,202.314072 
	C74.760468,189.655884 76.207947,177.322342 79.834450,164.960114 
	C86.394905,142.596497 101.171478,129.172653 123.196175,123.044983 
	C136.069977,119.463257 149.255402,119.466568 162.258484,121.225403 
	C171.323639,122.451584 180.208771,125.360153 189.016953,128.035324 
	C197.750092,130.687698 206.418915,133.664261 214.863037,137.117172 
	C220.739212,139.520004 226.067413,143.242538 231.892685,145.801132 
	C233.958496,146.708481 237.152679,146.729202 239.178528,145.772095 
	C252.318619,139.564087 265.185089,132.996857 279.209686,128.580414 
	C290.743256,124.948402 302.227997,121.909775 314.208954,121.102127 
	C322.195007,120.563789 330.404480,119.982178 338.239594,121.194000 
	C361.528107,124.795944 380.015747,135.210526 389.461365,158.560547 
	C393.861816,169.438736 396.124451,180.768448 395.578888,191.912064 
	C394.924957,205.269318 392.442108,218.905746 388.311310,231.629135 
	C383.341431,246.936966 375.838715,261.426453 369.344635,276.231598 
	C368.238953,278.752289 368.071411,280.483429 369.563599,283.360413 
	C380.099945,303.674774 389.867767,324.339935 393.029053,347.392670 
	C393.915283,353.855499 395.981354,360.317688 395.807587,366.734161 
	C395.311798,385.037842 392.202759,402.710449 379.410583,417.170319 
	C368.466766,429.540833 354.802826,436.156097 338.446350,438.113586 
	C322.063293,440.074280 306.185455,438.479218 290.299164,434.210358 
	C274.901733,430.072937 259.845612,424.828400 246.312469,416.696777 
	C237.888641,411.635132 231.786560,412.938873 224.248047,417.217957 
	C208.098846,426.384705 190.716263,432.898621 172.591187,436.533386 
	C151.469055,440.769196 130.096848,441.431915 110.079514,431.459991 
	C94.050072,423.474762 83.929871,410.088989 79.125114,392.973236 
	C74.273582,375.690857 75.581497,358.390656 79.390343,340.965515 
	C83.481979,322.246521 90.853241,304.917206 99.680870,287.677917 
M244.992981,379.464142 
	C257.674957,369.458160 270.796448,359.950989 282.898865,349.287292 
	C292.456451,340.865936 301.224792,331.417908 309.503113,321.709167 
	C319.546967,309.929779 328.587952,297.300781 338.311829,285.240112 
	C341.954773,280.721771 340.981323,277.039795 337.640442,273.201477 
	C337.096771,272.576874 336.553406,271.950470 336.041870,271.299774 
	C325.355652,257.707123 315.128815,243.717712 303.833466,230.651962 
	C296.161774,221.777863 287.421875,213.682953 278.390930,206.162750 
	C265.491577,195.421219 251.942627,185.452469 238.491745,175.393509 
	C237.330139,174.524826 234.402740,174.764664 233.016602,175.636261 
	C210.966095,189.501450 191.487442,206.432495 173.279221,225.038681 
	C159.895340,238.715073 148.047684,253.541351 136.669342,268.838013 
	C129.353989,278.672485 128.973114,279.289398 135.042847,287.831146 
	C150.845016,310.069031 167.737625,331.411896 188.718063,349.095032 
	C200.954407,359.408325 213.403610,369.479889 225.992386,379.360382 
	C234.691422,386.187988 234.871231,385.958893 244.992981,379.464142 
M98.994797,380.543915 
	C100.609230,390.936462 104.619507,399.878845 113.138397,406.698151 
	C122.671989,414.329712 133.354675,418.272461 145.451233,417.942749 
	C159.985672,417.546600 174.144043,414.694244 187.732773,409.551544 
	C196.385178,406.277008 204.777710,402.315826 214.451813,398.162354 
	C175.931137,371.082001 144.055908,339.285431 117.316757,301.041626 
	C114.253326,307.929932 111.015556,313.628357 109.143433,319.744812 
	C105.081169,333.016663 101.118233,346.379333 98.333847,359.954926 
	C97.049431,366.217255 98.627136,373.066589 98.994797,380.543915 
M272.496857,387.041290 
	C267.586395,390.628937 262.675934,394.216553 256.911835,398.427887 
	C265.831055,402.200256 273.670959,405.816681 281.727905,408.857880 
	C296.081970,414.276062 310.814697,418.268646 326.331696,417.914581 
	C330.185333,417.826660 333.994812,416.504517 337.858368,416.018341 
	C349.560699,414.545776 358.633636,408.827911 365.322235,399.236816 
	C374.547638,386.008087 374.009705,370.948761 372.341705,356.100464 
	C371.302032,346.845032 368.747742,337.637268 365.834473,328.748596 
	C362.807983,319.514526 358.530121,310.690552 354.426361,300.786652 
	C330.995758,334.212158 304.004547,362.283600 272.496857,387.041290 
M210.291550,159.069000 
	C207.748611,158.024811 205.167038,157.065125 202.668839,155.923050 
	C182.848328,146.862000 162.357849,140.727356 140.261719,142.033432 
	C128.515091,142.727783 117.571106,146.474838 109.619080,155.209793 
	C98.087708,167.876495 96.177032,184.002060 98.376930,200.004593 
	C100.101295,212.547958 104.301941,224.815216 108.113747,236.982300 
	C110.275322,243.881927 113.869324,250.332794 117.036263,257.477753 
	C118.800095,255.600189 119.974701,254.623108 120.815903,253.414047 
	C137.332245,229.675613 156.863297,208.628143 178.247208,189.263367 
	C183.204605,184.774063 188.567902,180.722534 193.850723,176.605942 
	C199.124969,172.496033 204.651962,168.700378 209.780487,164.422104 
	C210.800964,163.570786 215.864761,162.266022 210.291550,159.069000 
M301.352570,144.911179 
	C286.076477,148.052826 271.793274,153.772232 257.492798,161.489700 
	C295.573425,187.948639 327.427551,219.868225 354.002441,257.981262 
	C366.503601,233.425507 374.943604,209.017792 372.941528,182.081253 
	C372.258270,172.888321 369.529938,164.120102 363.397827,157.061691 
	C354.538483,146.864044 342.780151,142.124252 329.500763,142.150543 
	C320.353851,142.168640 311.209808,143.620987 301.352570,144.911179 
z"/>
<path fill="#3C83F6" opacity="1.000000" stroke="none" 
	d="
M379.108154,31.953876 
	C396.911194,30.590588 413.618195,34.934021 429.088654,43.167156 
	C444.142883,51.178791 456.058807,62.713997 464.140747,78.177162 
	C473.378845,95.852448 479.210449,114.679970 483.771454,133.885925 
	C485.684967,141.943466 485.562317,150.529861 485.932190,158.894974 
	C486.251434,166.114014 481.796661,170.542984 475.433167,171.085281 
	C467.604370,171.752411 462.880707,165.497620 463.076263,159.115097 
	C463.843903,134.060974 455.172119,111.508362 444.708313,89.534309 
	C437.243591,73.858337 424.553009,63.824883 408.317261,57.552689 
	C398.274658,53.673027 388.203918,51.025616 377.502808,51.056618 
	C371.404480,51.074280 365.310150,51.849655 359.209503,51.927155 
	C355.792786,51.970558 352.255402,51.700813 348.974426,50.819775 
	C345.235382,49.815742 343.147919,46.921017 343.000610,42.882893 
	C342.770386,36.572208 344.409332,34.071354 350.990692,31.993645 
	C360.930206,31.979805 370.019165,31.966841 379.108154,31.953876 
z"/>
<path fill="#3C83F6" opacity="1.000000" stroke="none" 
	d="
M378.266113,79.657982 
	C400.639038,86.381653 416.013214,100.238510 423.943939,121.816895 
	C427.948059,132.711502 431.677277,143.788162 434.346558,155.062881 
	C436.027740,162.164017 435.684631,169.779221 435.904205,177.174088 
	C435.989349,180.042023 430.787903,184.050323 427.853455,183.988831 
	C423.208160,183.891495 418.992249,180.309387 419.138092,175.205139 
	C419.447266,164.384644 417.161499,154.097610 413.966431,143.942856 
	C409.658020,130.249725 405.179260,116.418175 393.935242,106.640343 
	C383.944855,97.952637 372.036316,92.798813 358.643372,92.072243 
	C351.171478,91.666885 343.658020,92.092934 336.165924,91.975739 
	C329.530853,91.871956 326.077423,88.394798 327.062317,82.760742 
	C327.665253,79.311676 329.204041,76.829750 333.567078,76.925156 
	C344.220154,77.158089 354.888519,76.781548 365.536438,77.111465 
	C369.689972,77.240150 373.805145,78.605492 378.266113,79.657982 
z"/>
<path fill="#6EA3F8" opacity="1.000000" stroke="none" 
	d="
M378.885193,31.572861 
	C370.019165,31.966841 360.930206,31.979805 351.366394,31.973396 
	C353.383179,31.637127 355.872101,31.077234 358.366852,31.050104 
	C365.130646,30.976545 371.896942,31.129009 378.885193,31.572861 
z"/>
<path fill="#000000" opacity="1.000000" stroke="none" 
	d="
M244.732697,379.728027 
	C234.871231,385.958893 234.691422,386.187988 225.992386,379.360382 
	C213.403610,369.479889 200.954407,359.408325 188.718063,349.095032 
	C167.737625,331.411896 150.845016,310.069031 135.042847,287.831146 
	C128.973114,279.289398 129.353989,278.672485 136.669342,268.838013 
	C148.047684,253.541351 159.895340,238.715073 173.279221,225.038681 
	C191.487442,206.432495 210.966095,189.501450 233.016602,175.636261 
	C234.402740,174.764664 237.330139,174.524826 238.491745,175.393509 
	C251.942627,185.452469 265.491577,195.421219 278.390930,206.162750 
	C287.421875,213.682953 296.161774,221.777863 303.833466,230.651962 
	C315.128815,243.717712 325.355652,257.707123 336.041870,271.299774 
	C336.553406,271.950470 337.096771,272.576874 337.640442,273.201477 
	C340.981323,277.039795 341.954773,280.721771 338.311829,285.240112 
	C328.587952,297.300781 319.546967,309.929779 309.503113,321.709167 
	C301.224792,331.417908 292.456451,340.865936 282.898865,349.287292 
	C270.796448,359.950989 257.674957,369.458160 244.732697,379.728027 
M187.985550,283.305176 
	C188.339584,290.560822 190.396042,297.234436 194.089142,303.551636 
	C202.764114,318.390564 216.099915,326.545715 232.650513,327.735229 
	C250.788925,329.038849 265.699066,321.486145 276.011230,306.062775 
	C283.658966,294.624420 285.994141,281.945374 282.708710,268.704041 
	C280.056732,258.015656 274.715881,248.706161 265.521545,241.865189 
	C258.589752,236.707657 251.149429,233.816071 242.527496,232.629623 
	C228.099960,230.644318 215.323959,233.674713 204.383957,243.165421 
	C192.543411,253.437408 186.967087,266.579468 187.985550,283.305176 
z"/>
<path fill="#000000" opacity="1.000000" stroke="none" 
	d="
M98.950958,380.096863 
	C98.627136,373.066589 97.049431,366.217255 98.333847,359.954926 
	C101.118233,346.379333 105.081169,333.016663 109.143433,319.744812 
	C111.015556,313.628357 114.253326,307.929932 117.316757,301.041626 
	C144.055908,339.285431 175.931137,371.082001 214.451813,398.162354 
	C204.777710,402.315826 196.385178,406.277008 187.732773,409.551544 
	C174.144043,414.694244 159.985672,417.546600 145.451233,417.942749 
	C133.354675,418.272461 122.671989,414.329712 113.138397,406.698151 
	C104.619507,399.878845 100.609230,390.936462 98.950958,380.096863 
z"/>
<path fill="#000000" opacity="1.000000" stroke="none" 
	d="
M272.758118,386.787231 
	C304.004547,362.283600 330.995758,334.212158 354.426361,300.786652 
	C358.530121,310.690552 362.807983,319.514526 365.834473,328.748596 
	C368.747742,337.637268 371.302032,346.845032 372.341705,356.100464 
	C374.009705,370.948761 374.547638,386.008087 365.322235,399.236816 
	C358.633636,408.827911 349.560699,414.545776 337.858368,416.018341 
	C333.994812,416.504517 330.185333,417.826660 326.331696,417.914581 
	C310.814697,418.268646 296.081970,414.276062 281.727905,408.857880 
	C273.670959,405.816681 265.831055,402.200256 256.911835,398.427887 
	C262.675934,394.216553 267.586395,390.628937 272.758118,386.787231 
z"/>
<path fill="#000000" opacity="1.000000" stroke="none" 
	d="
M210.610199,159.277466 
	C215.864761,162.266022 210.800964,163.570786 209.780487,164.422104 
	C204.651962,168.700378 199.124969,172.496033 193.850723,176.605942 
	C188.567902,180.722534 183.204605,184.774063 178.247208,189.263367 
	C156.863297,208.628143 137.332245,229.675613 120.815903,253.414047 
	C119.974701,254.623108 118.800095,255.600189 117.036263,257.477753 
	C113.869324,250.332794 110.275322,243.881927 108.113747,236.982300 
	C104.301941,224.815216 100.101295,212.547958 98.376930,200.004593 
	C96.177032,184.002060 98.087708,167.876495 109.619080,155.209793 
	C117.571106,146.474838 128.515091,142.727783 140.261719,142.033432 
	C162.357849,140.727356 182.848328,146.862000 202.668839,155.923050 
	C205.167038,157.065125 207.748611,158.024811 210.610199,159.277466 
z"/>
<path fill="#000000" opacity="1.000000" stroke="none" 
	d="
M301.708527,144.671753 
	C311.209808,143.620987 320.353851,142.168640 329.500763,142.150543 
	C342.780151,142.124252 354.538483,146.864044 363.397827,157.061691 
	C369.529938,164.120102 372.258270,172.888321 372.941528,182.081253 
	C374.943604,209.017792 366.503601,233.425507 354.002441,257.981262 
	C327.427551,219.868225 295.573425,187.948639 257.492798,161.489700 
	C271.793274,153.772232 286.076477,148.052826 301.708527,144.671753 
z"/>
<path fill="#3D83F6" opacity="1.000000" stroke="none" 
	d="
M187.987091,282.831055 
	C186.967087,266.579468 192.543411,253.437408 204.383957,243.165421 
	C215.323959,233.674713 228.099960,230.644318 242.527496,232.629623 
	C251.149429,233.816071 258.589752,236.707657 265.521545,241.865189 
	C274.715881,248.706161 280.056732,258.015656 282.708710,268.704041 
	C285.994141,281.945374 283.658966,294.624420 276.011230,306.062775 
	C265.699066,321.486145 250.788925,329.038849 232.650513,327.735229 
	C216.099915,326.545715 202.764114,318.390564 194.089142,303.551636 
	C190.396042,297.234436 188.339584,290.560822 187.987091,282.831055 
M260.979126,286.250610 
	C263.780731,278.593018 260.434326,265.574829 254.047394,260.651550 
	C242.016953,251.378143 233.106522,251.250259 222.240555,257.397186 
	C212.129913,263.116882 209.024597,272.594696 209.995621,283.748047 
	C211.011551,295.416992 225.315414,306.455566 234.250092,306.212646 
	C244.611832,305.930908 256.960083,299.708130 260.979126,286.250610 
z"/>
<path fill="#000000" opacity="1.000000" stroke="none" 
	d="
M260.958923,286.669037 
	C256.960083,299.708130 244.611832,305.930908 234.250092,306.212646 
	C225.315414,306.455566 211.011551,295.416992 209.995621,283.748047 
	C209.024597,272.594696 212.129913,263.116882 222.240555,257.397186 
	C233.106522,251.250259 242.016953,251.378143 254.047394,260.651550 
	C260.434326,265.574829 263.780731,278.593018 260.958923,286.669037 
z"/>
</svg>